# Blender 4.4.1
# www.blender.org
mtllib shop.mtl
o Cube
v -37.657654 30.734219 -1.000000
v -37.657654 -1.000000 -1.000000
v -37.657654 30.734219 1.000000
v -37.657654 -1.000000 1.000000
v -39.657654 30.734219 -1.000000
v -39.657654 -1.000000 -1.000000
v -39.657654 30.734219 1.000000
v -39.657654 -1.000000 1.000000
v 37.657654 30.734219 -1.000000
v 37.657654 -1.000000 -1.000000
v 37.657654 30.734219 1.000000
v 37.657654 -1.000000 1.000000
v 39.657654 30.734219 -1.000000
v 39.657654 -1.000000 -1.000000
v 39.657654 30.734219 1.000000
v 39.657654 -1.000000 1.000000
vn -0.0000 1.0000 -0.0000
vn -0.0000 -0.0000 1.0000
vn -1.0000 -0.0000 -0.0000
vn -0.0000 -1.0000 -0.0000
vn 1.0000 -0.0000 -0.0000
vn -0.0000 -0.0000 -1.0000
vt 0.625000 0.500000
vt 0.875000 0.500000
vt 0.875000 0.750000
vt 0.625000 0.750000
vt 0.375000 0.750000
vt 0.625000 1.000000
vt 0.375000 1.000000
vt 0.375000 0.000000
vt 0.625000 0.000000
vt 0.625000 0.250000
vt 0.375000 0.250000
vt 0.125000 0.500000
vt 0.375000 0.500000
vt 0.125000 0.750000
s 0
usemtl Material
f 1/1/1 5/2/1 7/3/1 3/4/1
f 4/5/2 3/4/2 7/6/2 8/7/2
f 8/8/3 7/9/3 5/10/3 6/11/3
f 6/12/4 2/13/4 4/5/4 8/14/4
f 2/13/5 1/1/5 3/4/5 4/5/5
f 6/11/6 5/10/6 1/1/6 2/13/6
f 9/1/1 11/4/1 15/3/1 13/2/1
f 12/5/2 16/7/2 15/6/2 11/4/2
f 16/8/5 14/11/5 13/10/5 15/9/5
f 14/12/4 16/14/4 12/5/4 10/13/4
f 10/13/3 12/5/3 11/4/3 9/1/3
f 14/11/6 10/13/6 9/1/6 13/10/6
o Cube.002
v -29.908260 -1.000000 1.000000
v -29.908260 1.000000 1.000000
v -29.908260 -1.000000 -16.130409
v -29.908260 1.000000 -16.130409
v 0.000000 -1.000000 1.000000
v 0.000000 1.000000 1.000000
v 0.000000 -1.000000 -16.130409
v 0.000000 1.000000 -16.130409
v 29.908260 -1.000000 1.000000
v 29.908260 1.000000 1.000000
v 29.908260 -1.000000 -16.130409
v 29.908260 1.000000 -16.130409
vn -1.0000 -0.0000 -0.0000
vn -0.0000 -0.0000 -1.0000
vn 1.0000 -0.0000 -0.0000
vn -0.0000 -0.0000 1.0000
vn -0.0000 -1.0000 -0.0000
vn -0.0000 1.0000 -0.0000
vt 0.375000 0.000000
vt 0.625000 0.000000
vt 0.625000 0.250000
vt 0.375000 0.250000
vt 0.625000 0.500000
vt 0.375000 0.500000
vt 0.625000 0.750000
vt 0.375000 0.750000
vt 0.625000 1.000000
vt 0.375000 1.000000
vt 0.125000 0.500000
vt 0.125000 0.750000
vt 0.875000 0.500000
vt 0.875000 0.750000
s 0
f 17/15/7 18/16/7 20/17/7 19/18/7
f 19/18/8 20/17/8 24/19/8 23/20/8
f 23/20/9 24/19/9 22/21/9 21/22/9
f 21/22/10 22/21/10 18/23/10 17/24/10
f 19/25/11 23/20/11 21/22/11 17/26/11
f 24/19/12 20/27/12 18/28/12 22/21/12
f 25/15/9 27/18/9 28/17/9 26/16/9
f 27/18/8 23/20/8 24/19/8 28/17/8
f 21/22/10 25/24/10 26/23/10 22/21/10
f 27/25/11 25/26/11 21/22/11 23/20/11
f 24/19/12 22/21/12 26/28/12 28/27/12
